<svg xmlns="http://www.w3.org/2000/svg" version="1.1" xmlns:xlink="http://www.w3.org/1999/xlink" xmlns:svgjs="http://svgjs.dev/svgjs" viewBox="0 0 800 800" opacity="1"><g stroke-width="1" stroke="hsl(356,100%,94%)" fill="none" stroke-linecap="round" transform="matrix(1,0,0,1,-5,335.98987007141113)"><path d="M10,10C17.175925925925924,10.625,28.00925925925926,16.333333333333332,44.44444444444444,13C60.879629629629626,9.666666666666668,70.37037037037037,-6.833333333333333,88.88888888888889,-6C107.4074074074074,-5.166666666666667,114.8148148148148,16.375,133.33333333333331,17C151.85185185185185,17.625,159.25925925925924,-3.833333333333333,177.77777777777777,-3C196.2962962962963,-2.166666666666667,203.70370370370372,19.958333333333332,222.22222222222223,21C240.74074074074073,22.041666666666668,248.14814814814812,1.375,266.66666666666663,2C285.18518518518516,2.625,292.59259259259255,23.166666666666668,311.1111111111111,24C329.6296296296296,24.833333333333332,337.037037037037,5.166666666666667,355.55555555555554,6C374.0740740740741,6.833333333333333,381.48148148148147,27.375,400,28C418.51851851851853,28.625,425.9259259259259,7.958333333333333,444.44444444444446,9C462.962962962963,10.041666666666666,470.3703703703704,31.958333333333332,488.88888888888886,33C507.40740740740733,34.041666666666664,514.8148148148148,13.166666666666666,533.3333333333333,14C551.8518518518517,14.833333333333334,559.2592592592592,36.166666666666664,577.7777777777777,37C596.2962962962962,37.833333333333336,603.7037037037037,17.166666666666668,622.2222222222222,18C640.7407407407406,18.833333333333332,648.1481481481482,40.375,666.6666666666666,41C685.1851851851851,41.625,692.5925925925926,20.375,711.1111111111111,21C729.6296296296296,21.625,737.0370370370371,42.958333333333336,755.5555555555555,44C774.074074074074,45.041666666666664,790.7407407407408,29.75,800,26"></path><path d="M10,10C17.175925925925924,10.625,28.00925925925926,16.333333333333332,44.44444444444444,13C60.879629629629626,9.666666666666668,70.37037037037037,-6.833333333333333,88.88888888888889,-6C107.4074074074074,-5.166666666666667,114.8148148148148,16.375,133.33333333333331,17C151.85185185185185,17.625,159.25925925925924,-3.833333333333333,177.77777777777777,-3C196.2962962962963,-2.166666666666667,203.70370370370372,19.958333333333332,222.22222222222223,21C240.74074074074073,22.041666666666668,248.14814814814812,1.375,266.66666666666663,2C285.18518518518516,2.625,292.59259259259255,23.166666666666668,311.1111111111111,24C329.6296296296296,24.833333333333332,337.037037037037,5.166666666666667,355.55555555555554,6C374.0740740740741,6.833333333333333,381.48148148148147,27.375,400,28C418.51851851851853,28.625,425.9259259259259,7.958333333333333,444.44444444444446,9C462.962962962963,10.041666666666666,470.3703703703704,31.958333333333332,488.88888888888886,33C507.40740740740733,34.041666666666664,514.8148148148148,13.166666666666666,533.3333333333333,14C551.8518518518517,14.833333333333334,559.2592592592592,36.166666666666664,577.7777777777777,37C596.2962962962962,37.833333333333336,603.7037037037037,17.166666666666668,622.2222222222222,18C640.7407407407406,18.833333333333332,648.1481481481482,40.375,666.6666666666666,41C685.1851851851851,41.625,692.5925925925926,20.375,711.1111111111111,21C729.6296296296296,21.625,737.0370370370371,42.958333333333336,755.5555555555555,44C774.074074074074,45.041666666666664,790.7407407407408,29.75,800,26" transform="matrix(1,0,0,1,0,90)"></path><path d="M10,10C17.175925925925924,10.625,28.00925925925926,16.333333333333332,44.44444444444444,13C60.879629629629626,9.666666666666668,70.37037037037037,-6.833333333333333,88.88888888888889,-6C107.4074074074074,-5.166666666666667,114.8148148148148,16.375,133.33333333333331,17C151.85185185185185,17.625,159.25925925925924,-3.833333333333333,177.77777777777777,-3C196.2962962962963,-2.166666666666667,203.70370370370372,19.958333333333332,222.22222222222223,21C240.74074074074073,22.041666666666668,248.14814814814812,1.375,266.66666666666663,2C285.18518518518516,2.625,292.59259259259255,23.166666666666668,311.1111111111111,24C329.6296296296296,24.833333333333332,337.037037037037,5.166666666666667,355.55555555555554,6C374.0740740740741,6.833333333333333,381.48148148148147,27.375,400,28C418.51851851851853,28.625,425.9259259259259,7.958333333333333,444.44444444444446,9C462.962962962963,10.041666666666666,470.3703703703704,31.958333333333332,488.88888888888886,33C507.40740740740733,34.041666666666664,514.8148148148148,13.166666666666666,533.3333333333333,14C551.8518518518517,14.833333333333334,559.2592592592592,36.166666666666664,577.7777777777777,37C596.2962962962962,37.833333333333336,603.7037037037037,17.166666666666668,622.2222222222222,18C640.7407407407406,18.833333333333332,648.1481481481482,40.375,666.6666666666666,41C685.1851851851851,41.625,692.5925925925926,20.375,711.1111111111111,21C729.6296296296296,21.625,737.0370370370371,42.958333333333336,755.5555555555555,44C774.074074074074,45.041666666666664,790.7407407407408,29.75,800,26" transform="matrix(1,0,0,1,0,75)"></path><path d="M10,10C17.175925925925924,10.625,28.00925925925926,16.333333333333332,44.44444444444444,13C60.879629629629626,9.666666666666668,70.37037037037037,-6.833333333333333,88.88888888888889,-6C107.4074074074074,-5.166666666666667,114.8148148148148,16.375,133.33333333333331,17C151.85185185185185,17.625,159.25925925925924,-3.833333333333333,177.77777777777777,-3C196.2962962962963,-2.166666666666667,203.70370370370372,19.958333333333332,222.22222222222223,21C240.74074074074073,22.041666666666668,248.14814814814812,1.375,266.66666666666663,2C285.18518518518516,2.625,292.59259259259255,23.166666666666668,311.1111111111111,24C329.6296296296296,24.833333333333332,337.037037037037,5.166666666666667,355.55555555555554,6C374.0740740740741,6.833333333333333,381.48148148148147,27.375,400,28C418.51851851851853,28.625,425.9259259259259,7.958333333333333,444.44444444444446,9C462.962962962963,10.041666666666666,470.3703703703704,31.958333333333332,488.88888888888886,33C507.40740740740733,34.041666666666664,514.8148148148148,13.166666666666666,533.3333333333333,14C551.8518518518517,14.833333333333334,559.2592592592592,36.166666666666664,577.7777777777777,37C596.2962962962962,37.833333333333336,603.7037037037037,17.166666666666668,622.2222222222222,18C640.7407407407406,18.833333333333332,648.1481481481482,40.375,666.6666666666666,41C685.1851851851851,41.625,692.5925925925926,20.375,711.1111111111111,21C729.6296296296296,21.625,737.0370370370371,42.958333333333336,755.5555555555555,44C774.074074074074,45.041666666666664,790.7407407407408,29.75,800,26" transform="matrix(1,0,0,1,0,60)"></path><path d="M10,10C17.175925925925924,10.625,28.00925925925926,16.333333333333332,44.44444444444444,13C60.879629629629626,9.666666666666668,70.37037037037037,-6.833333333333333,88.88888888888889,-6C107.4074074074074,-5.166666666666667,114.8148148148148,16.375,133.33333333333331,17C151.85185185185185,17.625,159.25925925925924,-3.833333333333333,177.77777777777777,-3C196.2962962962963,-2.166666666666667,203.70370370370372,19.958333333333332,222.22222222222223,21C240.74074074074073,22.041666666666668,248.14814814814812,1.375,266.66666666666663,2C285.18518518518516,2.625,292.59259259259255,23.166666666666668,311.1111111111111,24C329.6296296296296,24.833333333333332,337.037037037037,5.166666666666667,355.55555555555554,6C374.0740740740741,6.833333333333333,381.48148148148147,27.375,400,28C418.51851851851853,28.625,425.9259259259259,7.958333333333333,444.44444444444446,9C462.962962962963,10.041666666666666,470.3703703703704,31.958333333333332,488.88888888888886,33C507.40740740740733,34.041666666666664,514.8148148148148,13.166666666666666,533.3333333333333,14C551.8518518518517,14.833333333333334,559.2592592592592,36.166666666666664,577.7777777777777,37C596.2962962962962,37.833333333333336,603.7037037037037,17.166666666666668,622.2222222222222,18C640.7407407407406,18.833333333333332,648.1481481481482,40.375,666.6666666666666,41C685.1851851851851,41.625,692.5925925925926,20.375,711.1111111111111,21C729.6296296296296,21.625,737.0370370370371,42.958333333333336,755.5555555555555,44C774.074074074074,45.041666666666664,790.7407407407408,29.75,800,26" transform="matrix(1,0,0,1,0,45)"></path><path d="M10,10C17.175925925925924,10.625,28.00925925925926,16.333333333333332,44.44444444444444,13C60.879629629629626,9.666666666666668,70.37037037037037,-6.833333333333333,88.88888888888889,-6C107.4074074074074,-5.166666666666667,114.8148148148148,16.375,133.33333333333331,17C151.85185185185185,17.625,159.25925925925924,-3.833333333333333,177.77777777777777,-3C196.2962962962963,-2.166666666666667,203.70370370370372,19.958333333333332,222.22222222222223,21C240.74074074074073,22.041666666666668,248.14814814814812,1.375,266.66666666666663,2C285.18518518518516,2.625,292.59259259259255,23.166666666666668,311.1111111111111,24C329.6296296296296,24.833333333333332,337.037037037037,5.166666666666667,355.55555555555554,6C374.0740740740741,6.833333333333333,381.48148148148147,27.375,400,28C418.51851851851853,28.625,425.9259259259259,7.958333333333333,444.44444444444446,9C462.962962962963,10.041666666666666,470.3703703703704,31.958333333333332,488.88888888888886,33C507.40740740740733,34.041666666666664,514.8148148148148,13.166666666666666,533.3333333333333,14C551.8518518518517,14.833333333333334,559.2592592592592,36.166666666666664,577.7777777777777,37C596.2962962962962,37.833333333333336,603.7037037037037,17.166666666666668,622.2222222222222,18C640.7407407407406,18.833333333333332,648.1481481481482,40.375,666.6666666666666,41C685.1851851851851,41.625,692.5925925925926,20.375,711.1111111111111,21C729.6296296296296,21.625,737.0370370370371,42.958333333333336,755.5555555555555,44C774.074074074074,45.041666666666664,790.7407407407408,29.75,800,26" transform="matrix(1,0,0,1,0,30)"></path><path d="M10,10C17.175925925925924,10.625,28.00925925925926,16.333333333333332,44.44444444444444,13C60.879629629629626,9.666666666666668,70.37037037037037,-6.833333333333333,88.88888888888889,-6C107.4074074074074,-5.166666666666667,114.8148148148148,16.375,133.33333333333331,17C151.85185185185185,17.625,159.25925925925924,-3.833333333333333,177.77777777777777,-3C196.2962962962963,-2.166666666666667,203.70370370370372,19.958333333333332,222.22222222222223,21C240.74074074074073,22.041666666666668,248.14814814814812,1.375,266.66666666666663,2C285.18518518518516,2.625,292.59259259259255,23.166666666666668,311.1111111111111,24C329.6296296296296,24.833333333333332,337.037037037037,5.166666666666667,355.55555555555554,6C374.0740740740741,6.833333333333333,381.48148148148147,27.375,400,28C418.51851851851853,28.625,425.9259259259259,7.958333333333333,444.44444444444446,9C462.962962962963,10.041666666666666,470.3703703703704,31.958333333333332,488.88888888888886,33C507.40740740740733,34.041666666666664,514.8148148148148,13.166666666666666,533.3333333333333,14C551.8518518518517,14.833333333333334,559.2592592592592,36.166666666666664,577.7777777777777,37C596.2962962962962,37.833333333333336,603.7037037037037,17.166666666666668,622.2222222222222,18C640.7407407407406,18.833333333333332,648.1481481481482,40.375,666.6666666666666,41C685.1851851851851,41.625,692.5925925925926,20.375,711.1111111111111,21C729.6296296296296,21.625,737.0370370370371,42.958333333333336,755.5555555555555,44C774.074074074074,45.041666666666664,790.7407407407408,29.75,800,26" transform="matrix(1,0,0,1,0,15)"></path></g></svg>